<?xml version="1.0" encoding="UTF-8" standalone="no"?>
<!DOCTYPE svg  PUBLIC '-//W3C//DTD SVG 1.1//EN'  'http://www.w3.org/Graphics/SVG/1.1/DTD/svg11.dtd'>
<svg xmlns="http://www.w3.org/2000/svg">
<defs>
<font id="MuseoSans-100" horiz-adv-x="513">
<font-face underline-position="-50" font-weight="250" descent="-200" panose-1="2 0 0 0 0 0 0 0 0 0" units-per-em="1000" unicode-range="U+0020-2265" bbox="-115 -210 972 874" x-height="500" underline-thickness="50" font-family="MuseoSans" ascent="800" cap-height="700"/>
<missing-glyph horiz-adv-x="1000"/>
<glyph glyph-name=".notdef" horiz-adv-x="1000"/>
<glyph glyph-name=".null" horiz-adv-x="0"/>
<glyph glyph-name="nonmarkingreturn" horiz-adv-x="333"/>
<glyph glyph-name="space" horiz-adv-x="277" unicode=" "/>
<glyph glyph-name="exclam" horiz-adv-x="295" unicode="!" d="M119 0v61h59v-61h-59zM126 175v525h43v-525h-43z"/>
<glyph glyph-name="quotedbl" horiz-adv-x="291" unicode='&quot;' d="M72 558v151h43v-151h-43zM176 558v151h43v-151h-43z"/>
<glyph glyph-name="numbersign" horiz-adv-x="733" unicode="#" d="M254 239h189l39 221h-189zM169 0l35 199h-152l7 40h152l39 221h-152l7 40h152l35 200h43l-35 -200h189l35 200h43l-35 -200h149l-7 -40h-149l-39 -221h149l-7 -40h-149l-35 -199h-43l35 199h-189l-35 -199h-43z"/>
<glyph glyph-name="dollar" horiz-adv-x="548" unicode="$" d="M66 75l29 33l8.5 -8.5t24 -19t38.5 -23.5t52 -18.5t64 -8.5q67 0 111.5 38t44.5 100q0 39 -20 69.5t-51.5 50t-70 37t-77.5 35.5t-70.5 39t-51.5 55t-20 77q0 67 50.5 118.5t131.5 60.5v95h43v-94q47 -2 87.5 -18t58.5 -31l17 -15l-24 -37q-7 7 -19.5 17t-52.5 26.5 t-81 16.5q-74 0 -120 -42t-46 -96q0 -49 37 -83.5t90 -56.5t106.5 -46.5t90.5 -68.5t37 -107q0 -73 -49.5 -123.5t-131.5 -57.5v-93h-43v93q-56 4 -104 25.5t-69 41.5z"/>
<glyph glyph-name="percent" horiz-adv-x="702" unicode="%" d="M422 118q0 -38 25 -64t62 -26t62.5 26t25.5 64t-25.5 64.5t-62.5 26.5t-62 -26.5t-25 -64.5zM379 118q0 54 38 92.5t92 38.5t92.5 -38.5t38.5 -92.5t-38.5 -92t-92.5 -38t-92 38t-38 92zM193 491q37 0 62.5 26t25.5 64t-25.5 64.5t-62.5 26.5t-62 -26.5t-25 -64.5t25 -64 t62 -26zM61 0l531 700h52l-531 -700h-52zM193 451q-54 0 -92 38t-38 92t38 92.5t92 38.5t92.5 -38.5t38.5 -92.5t-38.5 -92t-92.5 -38z"/>
<glyph glyph-name="ampersand" horiz-adv-x="666" unicode="&amp;" d="M110 193q0 -70 50 -116.5t135 -46.5q180 0 180 216v112h-161q-101 0 -152.5 -44.5t-51.5 -120.5zM65 191q0 65 35 118t97 70v2q-4 1 -11 4t-24.5 14.5t-30.5 27.5t-24 45.5t-11 65.5q0 77 54.5 125.5t149.5 48.5q13 0 31.5 -2.5t30.5 -5.5l12 -2l-14 -38q-37 8 -63 8 q-67 0 -111.5 -36.5t-44.5 -96.5q0 -23 6 -44t22 -44.5t52.5 -38t90.5 -14.5h163v102h43v-102h97v-40h-97v-112q0 -129 -59.5 -193.5t-163.5 -64.5q-101 0 -165.5 57.5t-64.5 145.5z"/>
<glyph glyph-name="quotesingle" horiz-adv-x="187" unicode="&apos;" d="M72 558v151h43v-151h-43z"/>
<glyph glyph-name="parenleft" horiz-adv-x="277" unicode="(" d="M193 -95q-110 192 -110 430q0 208 110 390h44q-113 -190 -113 -391q0 -231 113 -429h-44z"/>
<glyph glyph-name="parenright" horiz-adv-x="277" unicode=")" d="M84 -95h-44q113 198 113 429q0 201 -113 391h44q110 -182 110 -390q0 -238 -110 -430z"/>
<glyph glyph-name="asterisk" horiz-adv-x="470" unicode="*" d="M141 344l-36 25l99 130v2l-156 47l13 42l155 -54l-5 164h47l-5 -164l156 53l14 -41l-157 -47v-2l98 -130l-35 -26l-93 134h-2z"/>
<glyph glyph-name="plus" horiz-adv-x="686" unicode="+" d="M85 263v40h237v263h43v-263h236v-40h-236v-263h-43v263h-237z"/>
<glyph glyph-name="comma" horiz-adv-x="241" unicode="," d="M45 -94l53 155h56l-67 -155h-42z"/>
<glyph glyph-name="hyphen" horiz-adv-x="356" unicode="-" d="M40 263v40h276v-40h-276z"/>
<glyph glyph-name="period" horiz-adv-x="237" unicode="." d="M88 0v63h61v-63h-61z"/>
<glyph glyph-name="slash" horiz-adv-x="384" unicode="/" d="M47 -42l253 782h44l-253 -782h-44z"/>
<glyph glyph-name="zero" horiz-adv-x="622" unicode="0" d="M311 30q54 0 92.5 24t59.5 69t30 100t9 127q0 320 -191 320t-191 -320q0 -72 9 -127t30 -100t59.5 -69t92.5 -24zM311 -12q-236 0 -236 362t236 362t236 -362t-236 -362z"/>
<glyph glyph-name="one" horiz-adv-x="442" unicode="1" d="M56 0v40h159v570l1 35h-2q-7 -13 -37 -43l-83 -83l-30 29l151 152h43v-660h155v-40h-357z"/>
<glyph glyph-name="two" horiz-adv-x="557" unicode="2" d="M66 0q-3 20 -3 37q0 49 20.5 91.5t53.5 73.5t73 59.5t79.5 56t72.5 56t53.5 66t20.5 80.5q0 65 -44.5 107.5t-118.5 42.5q-31 0 -60 -10.5t-48.5 -25t-34 -29t-20.5 -25.5l-7 -10l-32 22q3 5 8 13t23.5 28.5t39.5 36.5t57 29t75 13q98 0 152.5 -56t54.5 -136 q0 -56 -27.5 -104t-69 -80t-89.5 -66.5t-89.5 -64.5t-69 -73t-27.5 -92h383v-40h-426z"/>
<glyph glyph-name="three" horiz-adv-x="556" unicode="3" d="M49 85l32 32q3 -4 8.5 -9.5t24.5 -20.5t39.5 -26.5t52 -21t63.5 -9.5q70 0 122.5 48.5t52.5 123.5q0 78 -55.5 122.5t-131.5 44.5h-48l-12 30l196 229l31 32v2q-19 -2 -54 -2h-287v40h401v-30l-226 -261q36 0 72.5 -9.5t74 -31.5t61 -65t23.5 -101q0 -89 -65.5 -151.5 t-156.5 -62.5q-37 0 -73.5 10t-61.5 24t-44.5 28.5t-29.5 24.5z"/>
<glyph glyph-name="four" horiz-adv-x="588" unicode="4" d="M96 240h300v328l3 63h-2q-17 -25 -35 -48l-266 -341v-2zM36 200v30l363 470h40v-460h104v-40h-104v-200h-43v200h-360z"/>
<glyph glyph-name="five" horiz-adv-x="554" unicode="5" d="M59 89l35 27l6 -9t18.5 -21t31.5 -26t45.5 -20.5t60.5 -9.5q82 0 138 52.5t56 130.5q0 79 -56 132t-138 53q-36 0 -70 -10.5t-50 -21.5l-16 -10l-32 11l40 333h325v-40h-287l-25 -209l-7 -43h2q49 32 120 32q100 0 169.5 -66t69.5 -161q0 -94 -70 -159.5t-169 -65.5 q-38 0 -72.5 10.5t-56 25t-38 29.5t-23.5 25z"/>
<glyph glyph-name="six" horiz-adv-x="592" unicode="6" d="M315 30q79 0 125 53t46 138q0 83 -47.5 132t-124.5 49q-78 0 -136 -44.5t-58 -94.5q0 -81 56 -157t139 -76zM316 -12q-113 0 -179 94t-66 233q0 68 17.5 135t51.5 127t94.5 97.5t137.5 37.5q32 0 62.5 -7t45.5 -14l14 -7l-21 -39q-43 25 -103 25q-77 0 -135 -49.5 t-86 -120t-33 -152.5h2q29 44 82.5 70t115.5 26q94 0 154.5 -61t60.5 -162q0 -109 -62 -171t-153 -62z"/>
<glyph glyph-name="seven" horiz-adv-x="507" unicode="7" d="M105 0l292 595l37 65v2q-20 -2 -55 -2h-340v40h443v-30l-332 -670h-45z"/>
<glyph glyph-name="eight" horiz-adv-x="601" unicode="8" d="M148 541q0 -30 12.5 -53.5t41 -42.5t51 -30.5t67 -30t63.5 -27.5q89 82 89 178q0 61 -45.5 98t-117.5 37q-74 0 -117.5 -37t-43.5 -92zM481 186q0 30 -13.5 54t-43 43.5t-54.5 31.5t-69 30.5t-66 29.5q-10 -5 -25.5 -16t-39.5 -33t-40 -55.5t-16 -70.5q0 -77 56 -123.5 t131 -46.5q70 0 125 44.5t55 111.5zM69 200q0 36 13 69.5t31.5 56t36.5 39.5t31 25l13 8q-91 55 -91 143q0 71 54.5 121t151.5 50q96 0 152 -49t56 -128q0 -104 -94 -198q103 -58 103 -150q0 -83 -65.5 -141t-159.5 -58q-93 0 -162.5 57t-69.5 155z"/>
<glyph glyph-name="nine" horiz-adv-x="592" unicode="9" d="M278 298q78 0 136 44.5t58 94.5q0 81 -56 157t-139 76q-79 0 -125 -53t-46 -138q0 -83 47.5 -132t124.5 -49zM220 -12q-32 0 -62.5 7t-45.5 14l-14 7l21 39q43 -25 103 -25q77 0 135 49.5t86 120t33 152.5h-2q-29 -44 -82.5 -70t-115.5 -26q-94 0 -154.5 61t-60.5 162 q0 109 62 171t153 62q113 0 179 -94t66 -233q0 -68 -17.5 -135t-51.5 -127t-94.5 -97.5t-137.5 -37.5z"/>
<glyph glyph-name="colon" horiz-adv-x="293" unicode=":" d="M118 0v59h57v-59h-57zM118 441v59h57v-59h-57z"/>
<glyph glyph-name="semicolon" horiz-adv-x="293" unicode=";" d="M76 -94l45 155h52l-56 -155h-41zM121 441v59h57v-59h-57z"/>
<glyph glyph-name="less" horiz-adv-x="563" unicode="&lt;" d="M54 265v36l439 197v-48l-377 -166v-2l377 -166v-48z"/>
<glyph glyph-name="equal" horiz-adv-x="704" unicode="=" d="M124 183v40h456v-40h-456zM124 343v40h456v-40h-456z"/>
<glyph glyph-name="greater" horiz-adv-x="563" unicode="&gt;" d="M70 68v48l377 166v2l-377 166v48l439 -197v-36z"/>
<glyph glyph-name="question" horiz-adv-x="469" unicode="?" d="M154 0v61h59v-61h-59zM162 175v44q0 45 18.5 81.5t45 61.5t52.5 49.5t44.5 57t18.5 72.5q0 55 -41 92t-105 37q-32 0 -64 -10.5t-47 -21.5l-16 -10l-23 34q7 6 19 14t51 22t79 14q85 0 138.5 -49t53.5 -123q0 -46 -18.5 -82.5t-45 -61.5t-53.5 -49t-45.5 -56.5 t-18.5 -71.5v-44h-43z"/>
<glyph glyph-name="at" horiz-adv-x="788" unicode="@" d="M305 241q0 -64 44.5 -109t108.5 -45h145v310h-143q-65 0 -110 -46t-45 -110zM70 243q0 151 102 258t244 107q120 0 176 -51t56 -126v-344h70v-40h-265q-80 0 -136.5 57t-56.5 137q0 81 56.5 138.5t136.5 57.5h150q-3 57 -46 94t-135 37q-129 0 -218 -94.5t-89 -230.5 t88.5 -229.5t218.5 -93.5v-42q-146 0 -249 106.5t-103 258.5z"/>
<glyph glyph-name="A" horiz-adv-x="606" unicode="A" d="M304 650h-2q-15 -54 -26 -84l-107 -284h267l-106 284zM542 0l-91 242h-297l-90 -242h-46l262 700h46l262 -700h-46z"/>
<glyph glyph-name="B" horiz-adv-x="619" unicode="B" d="M151 40h198q71 0 112.5 41t41.5 112q0 70 -43.5 112.5t-111.5 42.5h-197v-308zM151 388h191q59 0 96 37.5t37 99.5t-36.5 98.5t-97.5 36.5h-190v-272zM108 0v700h235q78 0 127.5 -48t49.5 -127q0 -109 -91 -153v-2q53 -15 86 -63t33 -114q0 -87 -55 -140t-140 -53h-245z "/>
<glyph glyph-name="C" horiz-adv-x="734" unicode="C" d="M61 355q0 152 99.5 254.5t247.5 102.5q46 0 89 -9t71 -22t49.5 -26t30.5 -22l10 -9l-26 -32q-3 3 -9.5 8.5t-28.5 19t-46 24t-62 19t-77 8.5q-129 0 -216 -90.5t-87 -225.5q0 -137 87.5 -231.5t218.5 -94.5q42 0 82 10t67 23.5t47.5 27.5t30.5 24l10 10l27 -30 l-11.5 -11.5t-32.5 -25.5t-53.5 -32t-73.5 -25.5t-93 -11.5q-151 0 -251 106.5t-100 260.5z"/>
<glyph glyph-name="D" horiz-adv-x="741" unicode="D" d="M151 40h170q142 0 226.5 81t84.5 229q0 147 -84.5 228.5t-226.5 81.5h-170v-620zM108 0v700h220q158 0 253.5 -93t95.5 -257q0 -165 -95 -257.5t-254 -92.5h-220z"/>
<glyph glyph-name="E" horiz-adv-x="571" unicode="E" d="M108 0v700h383v-40h-340v-287h279v-40h-279v-293h359v-40h-402z"/>
<glyph glyph-name="F" horiz-adv-x="508" unicode="F" d="M108 0v700h353v-40h-310v-292h268v-40h-268v-328h-43z"/>
<glyph glyph-name="G" horiz-adv-x="757" unicode="G" d="M61 350q0 152 100.5 257t248.5 105q70 0 131 -20t87 -40l26 -19l-26 -33q-3 3 -9.5 7.5t-28.5 17t-45.5 22t-60 17t-74.5 7.5q-131 0 -217.5 -92t-86.5 -229t84.5 -229t213.5 -92q42 0 82 12t67.5 29t49 33.5t31.5 28.5l10 12v135h-125v40h168v-319h-43v61l1 30h-2 q-3 -4 -10 -11t-29.5 -25t-48.5 -31.5t-67 -24.5t-84 -11q-146 0 -244.5 104.5t-98.5 257.5z"/>
<glyph glyph-name="H" horiz-adv-x="746" unicode="H" d="M108 0v700h43v-329h444v329h43v-700h-43v331h-444v-331h-43z"/>
<glyph glyph-name="I" horiz-adv-x="259" unicode="I" d="M108 0v700h43v-700h-43z"/>
<glyph glyph-name="J" d="M39 191v22h43v-23q0 -64 28 -105q39 -56 116 -56q60 0 102 38.5t42 122.5v470h-167v40h210v-509q0 -104 -54.5 -153.5t-132.5 -49.5t-132.5 49.5t-54.5 153.5z" unicode="J"/>
<glyph glyph-name="K" horiz-adv-x="580" unicode="K" d="M108 0v700h43v-312h130l200 312h52l-215 -330v-2l229 -368h-52l-214 348h-130v-348h-43z"/>
<glyph glyph-name="L" horiz-adv-x="509" unicode="L" d="M108 0v700h43v-660h334v-40h-377z"/>
<glyph glyph-name="M" horiz-adv-x="850" unicode="M" d="M88 0l56 700h42l204 -440l34 -79h2q18 45 34 79l204 440h42l56 -700h-43l-43 534l-3 93h-2q-20 -59 -36 -93l-188 -399h-44l-187 399l-37 95h-2q0 -61 -3 -95l-43 -534h-43z"/>
<glyph glyph-name="N" horiz-adv-x="752" unicode="N" d="M108 0v700h40l399 -549l57 -88h2q-5 53 -5 88v549h43v-700h-40l-399 549l-57 88h-2q5 -53 5 -88v-549h-43z"/>
<glyph glyph-name="O" horiz-adv-x="826" unicode="O" d="M104 355q0 -137 90 -231.5t219 -94.5t219 94.5t90 231.5q0 134 -90 225t-219 91t-219 -91t-90 -225zM59 355q0 150 103.5 253.5t250.5 103.5t250.5 -103.5t103.5 -253.5q0 -154 -103.5 -260.5t-250.5 -106.5t-250.5 106.5t-103.5 260.5z"/>
<glyph glyph-name="P" horiz-adv-x="592" unicode="P" d="M151 330h185q78 0 124 44t46 122t-46 121t-124 43h-185v-330zM108 0v700h230q93 0 153 -55.5t60 -148.5q0 -94 -60 -150t-153 -56h-187v-290h-43z"/>
<glyph glyph-name="Q" horiz-adv-x="839" unicode="Q" d="M105 354q0 -137 88.5 -231t218.5 -94q56 0 111.5 20.5t96.5 57.5l-90 93l28 27l89 -92q76 92 76 219q0 135 -89.5 226t-221.5 91q-130 0 -218.5 -91t-88.5 -226zM60 354q0 151 102.5 254.5t249.5 103.5q149 0 252.5 -103.5t103.5 -254.5q0 -146 -92 -249l90 -93l-28 -27 l-89 92q-98 -89 -237 -89q-146 0 -249 107t-103 259z"/>
<glyph glyph-name="R" horiz-adv-x="621" unicode="R" d="M151 350h190q68 0 109 44.5t41 116.5q0 46 -22 82t-60 53q-31 14 -98 14h-160v-310zM108 0v700h205q84 0 126 -21q45 -22 71 -66t26 -102q0 -74 -39 -126.5t-101 -66.5v-2q7 -8 16 -25l157 -291h-51l-166 310h-201v-310h-43z"/>
<glyph glyph-name="S" horiz-adv-x="530" unicode="S" d="M56 75l29 33l8.5 -8.5t24 -19t38.5 -23.5t52 -18.5t64 -8.5q67 0 111.5 38t44.5 100q0 40 -19.5 71t-51.5 50t-70 36t-76 34.5t-70 38.5t-51.5 55t-19.5 78q0 73 59 127t151 54q32 0 62 -6.5t50 -16t35.5 -19.5t22.5 -16l8 -7l-24 -37q-7 7 -19.5 17t-52.5 26.5t-81 16.5 q-74 0 -120 -42t-46 -96q0 -37 19.5 -65.5t51.5 -46.5t70 -34t76 -34t70 -40t51.5 -58.5t19.5 -83.5q0 -78 -55.5 -130t-147.5 -52q-39 0 -75 9t-60 21.5t-43 25.5t-28 22z"/>
<glyph glyph-name="T" horiz-adv-x="581" unicode="T" d="M269 0v660h-261v40h565v-40h-261v-660h-43z"/>
<glyph glyph-name="U" horiz-adv-x="719" unicode="U" d="M98 240v460h43v-458q0 -98 59 -155.5t159 -57.5t159.5 57.5t59.5 157.5v456h43v-460q0 -115 -72.5 -183.5t-188.5 -68.5q-117 0 -189.5 69t-72.5 183z"/>
<glyph glyph-name="V" horiz-adv-x="605" unicode="V" d="M279 0l-262 700h46l211 -566l27 -84h2q15 51 27 84l212 566h46l-262 -700h-47z"/>
<glyph glyph-name="W" horiz-adv-x="919" unicode="W" d="M458 639h-2q-14 -66 -27 -111l-148 -528h-54l-184 700h45l148 -570l17 -75h2l3 11q2 11 7 30t9 34l160 570h48l160 -570q4 -15 9 -34t7 -30l3 -11h2q8 41 17 75l153 570h45l-189 -700h-54l-148 528l-27 111h-2z"/>
<glyph glyph-name="X" horiz-adv-x="573" unicode="X" d="M30 0l226 370l-201 330h52l134 -223l46 -78h2q22 44 43 78l135 223h52l-203 -330l227 -370h-51l-162 266l-45 75h-2q-21 -41 -42 -76l-160 -265h-51z"/>
<glyph glyph-name="Y" horiz-adv-x="556" unicode="Y" d="M257 0v304l-238 396h49l166 -276l43 -79h2q22 45 43 79l166 276h49l-237 -396v-304h-43z"/>
<glyph glyph-name="Z" horiz-adv-x="586" unicode="Z" d="M44 0v34l385 562l48 64v2q-16 -2 -51 -2h-361v40h464v-34l-385 -562l-48 -64v-2q16 2 51 2h385v-40h-488z"/>
<glyph glyph-name="bracketleft" horiz-adv-x="267" unicode="[" d="M112 -95v820h108v-40h-65v-740h65v-40h-108z"/>
<glyph glyph-name="backslash" horiz-adv-x="384" unicode="\" d="M293 -42l-253 782h44l253 -782h-44z"/>
<glyph glyph-name="bracketright" horiz-adv-x="267" unicode="]" d="M47 -55h65v740h-65v40h108v-820h-108v40z"/>
<glyph glyph-name="asciicircum" horiz-adv-x="600" unicode="^" d="M77 252l197 448h32l197 -448h-46l-167 388l-167 -388h-46z"/>
<glyph glyph-name="underscore" horiz-adv-x="576" unicode="_" d="M40 0h496v-40h-496v40z"/>
<glyph glyph-name="grave" horiz-adv-x="509" unicode="`" d="M272 750l-79 111h56l67 -111h-44z"/>
<glyph glyph-name="a" d="M91 136q0 -43 34 -76t94 -33q77 0 124 65.5t47 146.5v27h-32q-31 0 -50.5 -0.5t-56 -4t-60 -12t-49 -22t-38.5 -37t-13 -54.5zM47 133q0 35 13 63t32 45.5t49.5 30.5t55.5 19t60 9.5t54 4t46 0.5h33v17q0 149 -137 149q-39 0 -74.5 -12t-52.5 -24l-16 -12l-24 34 q7 6 20 15t57 24.5t92 15.5q87 0 132 -48t45 -141v-323h-42v66l4 45h-2q1 0 -5 -12.5t-19 -30.5t-32.5 -36.5t-51 -31t-67.5 -12.5q-68 0 -119 37.5t-51 107.5z" unicode="a"/>
<glyph glyph-name="b" horiz-adv-x="579" unicode="b" d="M129 249q0 -90 45.5 -155t128.5 -65q76 0 127 59.5t51 161.5q0 100 -48.5 160.5t-125.5 60.5q-76 0 -127 -55.5t-51 -166.5zM88 0v700h42v-260l-4 -41h2q2 5 5.5 12.5t18.5 27t33.5 34.5t51.5 27t72 12q99 0 157.5 -72t58.5 -190t-62.5 -190t-161.5 -72q-35 0 -66 11.5 t-49.5 28t-32.5 33.5t-19 29l-6 11h-2q4 -18 4 -44v-57h-42z"/>
<glyph glyph-name="c" horiz-adv-x="551" unicode="c" d="M53 249q0 116 75.5 189.5t182.5 73.5q53 0 97.5 -18t63.5 -36l18 -17l-26 -34q-6 7 -18.5 17.5t-52 28.5t-82.5 18q-90 0 -152 -61.5t-62 -160.5q0 -98 62 -159t152 -61q49 0 90.5 18t58.5 36l18 18l22 -35q-3 -3 -8 -8.5t-23 -19t-38 -23.5t-52.5 -18.5t-67.5 -8.5 q-109 0 -183.5 72.5t-74.5 188.5z"/>
<glyph glyph-name="d" horiz-adv-x="580" unicode="d" d="M99 250q0 -100 48.5 -160.5t125.5 -60.5q76 0 127 55.5t51 166.5q0 90 -45.5 155t-128.5 65q-76 0 -127 -59.5t-51 -161.5zM55 250q0 118 62.5 190t161.5 72q35 0 66 -11.5t49.5 -28t32.5 -33.5t19 -29l6 -11h2q-4 18 -4 41v260h42v-700h-42v63l4 38h-2q-2 -5 -5.5 -12.5 t-18.5 -27t-33.5 -34.5t-51.5 -27t-72 -12q-99 0 -157.5 72t-58.5 190z"/>
<glyph glyph-name="e" horiz-adv-x="553" unicode="e" d="M100 296h356q-4 87 -49 132t-112 45q-73 0 -127.5 -46.5t-67.5 -130.5zM53 249q0 122 71 192.5t172 70.5q97 0 150.5 -65.5t53.5 -162.5l-2 -27h-401q0 -105 61.5 -166.5t152.5 -61.5q43 0 81.5 15.5t55.5 31.5l18 16l23 -35q-8 -8 -22.5 -19.5t-61 -30.5t-94.5 -19 q-109 0 -183.5 72.5t-74.5 188.5z"/>
<glyph glyph-name="f" horiz-adv-x="305" unicode="f" d="M109 0v459h-63v38h63v23q0 58 17 98t44.5 57t50 23.5t46.5 6.5l26 -2v-39q-9 2 -23 2q-19 0 -36 -5t-37.5 -18.5t-33 -45t-12.5 -76.5v-24h137v-38h-137v-459h-42z"/>
<glyph glyph-name="g" horiz-adv-x="573" unicode="g" d="M280 41q73 0 118.5 51.5t45.5 165.5q0 213 -174 213q-81 0 -126 -56t-45 -157q0 -100 50 -158.5t131 -58.5zM119 -134q62 -35 134 -35q85 0 137.5 42.5t52.5 129.5v58l4 41h-2q-50 -102 -168 -102q-98 0 -160 71t-62 187q0 117 58.5 185.5t156.5 68.5q40 0 72.5 -10 t50.5 -24.5t30.5 -29t16.5 -24.5l4 -10h2q-3 7 -3 19v67h42v-497q0 -108 -65.5 -160.5t-163.5 -52.5q-81 0 -157 39z"/>
<glyph glyph-name="h" horiz-adv-x="586" unicode="h" d="M88 0v700h42v-288l-4 -41h2q17 48 73 94.5t139 46.5q92 0 128.5 -49.5t36.5 -145.5v-317h-42v302q0 30 -2 51.5t-9 45t-20 38.5t-36.5 24.5t-55.5 9.5q-70 0 -126.5 -44.5t-75.5 -114.5q-8 -28 -8 -68v-244h-42z"/>
<glyph glyph-name="i" horiz-adv-x="218" unicode="i" d="M88 0v500h42v-500h-42zM84 627v73h50v-73h-50z"/>
<glyph glyph-name="j" horiz-adv-x="218" unicode="j" d="M84 627v73h50v-73h-50zM88 500h42v-520q0 -58 -17 -98t-44.5 -57.5t-50.5 -23.5t-47 -6l-25 2v39q9 -2 22 -2q19 0 36.5 5t38 18.5t33 45t12.5 76.5v521z"/>
<glyph glyph-name="k" horiz-adv-x="480" unicode="k" d="M88 0v700h42v-397h89l162 197h55l-181 -215v-2l198 -283h-53l-181 264h-89v-264h-42z"/>
<glyph glyph-name="l" horiz-adv-x="230" unicode="l" d="M83 101v599h42v-586q0 -78 59 -78l15 1v-39q-9 -2 -18 -2q-14 0 -28 3.5t-31.5 13.5t-28 32.5t-10.5 55.5z"/>
<glyph glyph-name="m" horiz-adv-x="918" unicode="m" d="M88 0v500h42v-88l-4 -41h2q19 56 76.5 98.5t115.5 42.5q74 0 112 -34t46 -102h2q22 55 75 95.5t115 40.5q92 0 129.5 -49.5t37.5 -145.5v-317h-42v302q0 82 -26 126.5t-99 44.5q-60 0 -109.5 -45t-66.5 -107q-10 -33 -10 -77v-244h-42v302q0 30 -2 51.5t-9.5 45.5t-20 39 t-35.5 25t-55 10q-64 0 -114 -47.5t-68 -113.5q-8 -28 -8 -68v-244h-42z"/>
<glyph glyph-name="n" horiz-adv-x="586" unicode="n" d="M88 0v500h42v-88l-4 -41h2q17 48 73 94.5t139 46.5q92 0 128.5 -49.5t36.5 -145.5v-317h-42v302q0 30 -2 51.5t-9 45t-20 38.5t-36.5 24.5t-55.5 9.5q-70 0 -126.5 -44.5t-75.5 -114.5q-8 -28 -8 -68v-244h-42z"/>
<glyph glyph-name="o" horiz-adv-x="620" unicode="o" d="M95 253q0 -95 62.5 -159.5t152.5 -64.5t152.5 64.5t62.5 159.5q0 92 -62.5 155t-152.5 63t-152.5 -63t-62.5 -155zM51 253q0 109 75.5 184t183.5 75t183.5 -75t75.5 -184q0 -111 -75.5 -188t-183.5 -77t-183.5 77t-75.5 188z"/>
<glyph glyph-name="p" horiz-adv-x="579" unicode="p" d="M129 249q0 -89 47 -154.5t127 -65.5q76 0 127 59.5t51 161.5q0 100 -48.5 160.5t-125.5 60.5q-76 0 -127 -55.5t-51 -166.5zM88 -200v700h42v-60l-3 -40h2q2 5 5.5 12.5t18 26.5t33 34t51.5 27t72 12q99 0 157.5 -72t58.5 -190t-62 -190t-160 -72q-36 0 -67.5 11.5 t-50.5 28t-32.5 33.5t-18.5 29l-6 11h-2q4 -18 4 -44v-257h-42z"/>
<glyph glyph-name="q" horiz-adv-x="580" unicode="q" d="M99 250q0 -100 48.5 -160.5t125.5 -60.5q76 0 127 55.5t51 166.5q0 90 -45.5 155t-128.5 65q-76 0 -127 -59.5t-51 -161.5zM55 250q0 118 62.5 190t161.5 72q35 0 66 -11.5t49.5 -28t32 -33t19.5 -27.5l5 -12h2q-3 17 -3 40v60h42v-700h-42v257l4 44h-2q-2 -5 -5.5 -12.5 t-18.5 -27t-33.5 -34.5t-51.5 -27t-72 -12q-99 0 -157.5 72t-58.5 190z"/>
<glyph glyph-name="r" horiz-adv-x="338" unicode="r" d="M88 0v500h42v-95l-4 -41h2q20 61 62 100.5t98 39.5l29 -3v-42q-12 2 -23 2q-55 0 -93 -39.5t-56 -100.5q-15 -48 -15 -105v-216h-42z"/>
<glyph glyph-name="s" horiz-adv-x="436" unicode="s" d="M45 60l27 32q6 -7 18 -17.5t52.5 -28t84.5 -17.5q49 0 82 25t33 69q0 35 -28.5 59t-69 39t-80.5 32t-68.5 48t-28.5 76q0 64 46 99.5t114 35.5q45 0 82 -13.5t51 -26.5l15 -14l-25 -34q-5 5 -14 13t-41.5 21t-70.5 13q-47 0 -80 -22.5t-33 -68.5q0 -36 28.5 -60t69 -39.5 t80.5 -32t68.5 -48t28.5 -77.5q0 -60 -45 -97.5t-115 -37.5q-54 0 -99 18t-63 36z"/>
<glyph glyph-name="t" horiz-adv-x="314" unicode="t" d="M104 181v278h-66v38h66v142h42v-142h131v-38h-131v-275q0 -46 12.5 -78t32.5 -46.5t37.5 -19.5t36.5 -5l23 2v-39q-10 -2 -25 -2q-19 0 -37 3t-41 14.5t-40 30.5t-29 54.5t-12 82.5z"/>
<glyph glyph-name="u" horiz-adv-x="581" unicode="u" d="M81 183v317h42v-302q0 -30 2 -51.5t9 -45t20 -38.5t36.5 -24.5t55.5 -9.5q90 0 147.5 67.5t57.5 159.5v244h42v-500h-42v88l4 41h-2q-17 -48 -72 -94.5t-135 -46.5q-89 0 -127 48t-38 147z"/>
<glyph glyph-name="v" horiz-adv-x="469" unicode="v" d="M215 0l-197 500h45l154 -392l17 -54h2q8 30 17 54l154 392h44l-196 -500h-40z"/>
<glyph glyph-name="w" horiz-adv-x="797" unicode="w" d="M197 0l-176 500h45l136 -392l17 -54h2q9 30 17 54l137 390h47l137 -390l17 -54h2q8 29 17 54l136 392h45l-176 -500h-45l-139 388l-17 54h-2q-8 -30 -17 -54l-138 -388h-45z"/>
<glyph glyph-name="x" horiz-adv-x="476" unicode="x" d="M29 0l180 264l-161 236h51l121 -182l17 -28h2q9 15 17 28l121 182h51l-161 -236l180 -264h-52l-138 207l-18 29h-2q-8 -14 -18 -29l-138 -207h-52z"/>
<glyph glyph-name="y" horiz-adv-x="489" unicode="y" d="M8 -182l19 36q28 -24 62 -24q60 0 98 90l36 83l-207 497h45l165 -399l18 -47h2q7 23 17 47l165 399h45l-257 -617q-39 -93 -127 -93q-21 0 -41.5 7t-29.5 14z"/>
<glyph glyph-name="z" horiz-adv-x="501" unicode="z" d="M44 0v34l303 381l39 46v2q-18 -2 -51 -2h-278v39h386v-34l-304 -381l-40 -46v-2q19 2 52 2h303v-39h-410z"/>
<glyph glyph-name="braceleft" horiz-adv-x="325" unicode="{" d="M140 88v94q0 30 -9 53.5t-21 35t-24.5 19t-21.5 9.5l-9 2v40q3 0 9 1.5t20.5 9.5t26 19.5t20.5 35t9 53.5v81q0 59 16 99.5t41 56.5t43 21.5t36 5.5h9v-39h-6q-13 0 -25.5 -4t-30.5 -17t-29 -44.5t-11 -77.5v-93q0 -27 -8 -50t-19.5 -36.5t-23.5 -23.5t-20 -13l-8 -4v-2 q3 -1 8.5 -3.5t19 -12.5t24 -22.5t19 -36.5t8.5 -52v-106q0 -46 11 -77.5t29 -44.5t30.5 -17t25.5 -4h6v-39q-3 -1 -9 -1q-13 0 -26.5 2.5t-34.5 13.5t-36.5 29t-27 54.5t-11.5 84.5z"/>
<glyph glyph-name="bar" horiz-adv-x="265" unicode="|" d="M111 -155v940h43v-940h-43z"/>
<glyph glyph-name="braceright" horiz-adv-x="325" unicode="}" d="M40 -56h6q13 0 25.5 4t30.5 17t29 44.5t11 77.5v106q0 45 20 76.5t40 40.5l19 10v2q-3 1 -8.5 3.5t-19 13t-24 23.5t-19 36.5t-8.5 50.5v93q0 46 -11 77.5t-29 44.5t-30.5 17t-25.5 4h-6v39h9q18 0 36 -5.5t43 -21.5t41 -56.5t16 -99.5v-81q0 -30 9 -53.5t21.5 -35 t24.5 -19t21 -9.5l9 -2v-40q-3 0 -9 -1.5t-20.5 -9.5t-26 -19.5t-20.5 -35t-9 -53.5v-94q0 -48 -11.5 -84.5t-27 -54.5t-36.5 -29t-34.5 -13.5t-26.5 -2.5l-9 1v39z"/>
<glyph glyph-name="asciitilde" horiz-adv-x="592" unicode="~" d="M79 213q0 74 31.5 109t83.5 35q31 0 55.5 -11.5t40 -27.5t30 -32t35 -27.5t45.5 -11.5q31 0 49 21t22 41.5t4 43.5h40q0 -74 -31.5 -109t-83.5 -35q-31 0 -55.5 11.5t-40 27.5t-30 32t-35 27.5t-45.5 11.5q-31 0 -49 -21t-22 -41.5t-4 -43.5h-40z"/>
<glyph glyph-name="uni00A0" horiz-adv-x="277" unicode=" "/>
<glyph glyph-name="exclamdown" horiz-adv-x="261" unicode="¡" d="M100 439v61h59v-61h-59zM109 -200v525h43v-525h-43z"/>
<glyph glyph-name="cent" horiz-adv-x="567" unicode="¢" d="M274 -13v84q-102 9 -155.5 86.5t-53.5 192.5t53.5 192.5t155.5 86.5v83h43v-83q122 -11 185 -142l-41 -16q-55 116 -163 116q-95 0 -141.5 -66t-46.5 -171t46.5 -171t141.5 -66q108 0 163 116l41 -16q-64 -132 -185 -142v-84h-43z"/>
<glyph glyph-name="sterling" horiz-adv-x="585" unicode="£" d="M80 333v40h45v162q0 75 56 126t141 51q40 0 76.5 -13t53.5 -25l17 -13l-29 -33q-6 5 -16 12t-41 18.5t-62 11.5q-72 0 -112.5 -40t-40.5 -99v-158h198v-40h-198v-293h351v-40h-459v40h65v293h-45z"/>
<glyph glyph-name="yen" horiz-adv-x="598" unicode="¥" d="M115 352v40h110l-185 308h49l166 -276l43 -79h2q22 45 43 79l166 276h49l-185 -308h108v-40h-132l-28 -48v-42h160v-40h-160v-222h-43v222h-163v40h163v42l-29 48h-134z"/>
<glyph glyph-name="section" horiz-adv-x="390" unicode="§" d="M63 -29l26 32q29 -24 68 -24q48 0 80 31t32 82q0 14 -1 21l-65 475h42l67 -474q2 -18 2 -25q0 -65 -45 -108t-113 -43q-24 0 -47 8t-35 16zM142 62l-67 474q-2 16 -2 25q0 65 44.5 108t113.5 43q24 0 47 -8t34 -16l12 -9l-26 -32q-29 24 -68 24q-48 0 -80.5 -31 t-32.5 -82q0 -7 2 -21l65 -475h-42z"/>
<glyph glyph-name="dieresis" horiz-adv-x="509" unicode="¨" d="M163 788v73h46v-73h-46zM300 788v73h46v-73h-46z"/>
<glyph glyph-name="copyright" horiz-adv-x="838" unicode="©" d="M214 349q0 85 57 148t158 63q29 0 56.5 -9t46 -22t33 -26t21.5 -22l6 -9l-33 -29q-5 8 -15.5 20.5t-44 33t-69.5 20.5q-81 0 -126 -49.5t-45 -117.5t45 -117.5t126 -49.5q37 0 69 18.5t46 36.5l14 19l33 -29q-2 -4 -7 -9.5t-21 -21t-33.5 -27t-45 -21t-56.5 -9.5 q-101 0 -158 62t-57 147zM110 350q0 -136 88.5 -228t218.5 -92q132 0 221.5 92t89.5 228q0 135 -89.5 227.5t-221.5 92.5q-130 0 -218.5 -92.5t-88.5 -227.5zM65 350q0 151 103 256.5t249 105.5q149 0 252.5 -105.5t103.5 -256.5q0 -152 -103.5 -257t-252.5 -105 q-147 0 -249.5 105t-102.5 257z"/>
<glyph glyph-name="ordfeminine" horiz-adv-x="428" unicode="ª" d="M87 263v37h253v-37h-253zM202 419q43 0 69.5 37.5t26.5 83.5v10h-13q-154 0 -154 -71q0 -25 18.5 -42.5t52.5 -17.5zM201 382q-45 0 -78 24t-33 69q0 111 194 111h14v4q0 83 -76 83q-21 0 -42.5 -7.5t-32.5 -14.5l-11 -7l-22 30q42 36 109 36q114 0 114 -120v-202h-39v51 h-2q-3 -6 -10 -15.5t-31.5 -25.5t-53.5 -16z"/>
<glyph glyph-name="guillemotleft" horiz-adv-x="491" unicode="«" d="M218 77l-164 205l164 206h53l-164 -206l164 -205h-53zM214 282l164 206h53l-164 -206l164 -205h-53z"/>
<glyph glyph-name="logicalnot" horiz-adv-x="635" unicode="¬" d="M90 343v40h456v-219h-42v179h-414z"/>
<glyph glyph-name="uni00AD" horiz-adv-x="432" unicode="­" d="M78 263v40h276v-40h-276z"/>
<glyph glyph-name="registered" horiz-adv-x="838" unicode="®" d="M345 355h84q35 0 55.5 21t20.5 58q0 36 -20.5 56t-55.5 20h-84v-155zM301 150v400h133q51 0 83.5 -32t32.5 -84q0 -42 -22 -70.5t-55 -36.5v-2q4 -5 13 -22l79 -153h-49l-85 167h-86v-167h-44zM110 350q0 -136 88.5 -228t218.5 -92q132 0 221.5 92t89.5 228 q0 135 -89.5 227.5t-221.5 92.5q-130 0 -218.5 -92.5t-88.5 -227.5zM65 350q0 151 103 256.5t249 105.5q149 0 252.5 -105.5t103.5 -256.5q0 -152 -103.5 -257t-252.5 -105q-147 0 -249.5 105t-102.5 257z"/>
<glyph glyph-name="macron" horiz-adv-x="509" unicode="¯" d="M135 786v40h239v-40h-239z"/>
<glyph glyph-name="degree" horiz-adv-x="371" unicode="°" d="M185 489q37 0 62.5 26t25.5 64t-25.5 64.5t-62.5 26.5t-62 -26.5t-25 -64.5t25 -64t62 -26zM185 449q-54 0 -92 38t-38 92t38 92.5t92 38.5t92.5 -38.5t38.5 -92.5t-38.5 -92t-92.5 -38z"/>
<glyph glyph-name="plusminus" horiz-adv-x="686" unicode="±" d="M105 -113h476v-40h-476v40zM85 263v40h237v263h43v-263h236v-40h-236v-263h-43v263h-237z"/>
<glyph glyph-name="twosuperior" horiz-adv-x="376" unicode="²" d="M55 423q-2 18 -2 27q0 45 23 80.5t55.5 58.5t64.5 44t55 49t23 62q0 36 -25.5 61.5t-65.5 25.5q-25 0 -48.5 -12.5t-34.5 -24.5l-11 -13l-24 26q5 7 14 17t39.5 26.5t64.5 16.5q62 0 96 -35.5t34 -87.5q0 -41 -22.5 -73.5t-54.5 -54.5t-64.5 -42.5t-55.5 -49.5t-24 -65 h229v-36h-266z"/>
<glyph glyph-name="threesuperior" horiz-adv-x="376" unicode="³" d="M184 413q-42 0 -76.5 16.5t-47.5 32.5l-14 16l28 26q4 -6 12 -15t36.5 -24.5t62.5 -15.5q39 0 71 29.5t32 71.5q0 43 -32.5 69.5t-74.5 26.5h-32l-11 24l108 127l25 25v2q-18 -3 -38 -3h-164v36h255v-26l-128 -150q51 -4 91 -35t40 -96q0 -57 -42.5 -97t-100.5 -40z"/>
<glyph glyph-name="acute" horiz-adv-x="509" unicode="´" d="M193 750l67 111h56l-79 -111h-44z"/>
<glyph glyph-name="mu" horiz-adv-x="598" unicode="µ" d="M93 -200v700h42v-302q0 -30 2 -51.5t9 -45t20 -38.5t36.5 -24.5t55.5 -9.5q90 0 147.5 67.5t57.5 159.5v244h42v-500h-42v83l2 41h-2q-2 -6 -6.5 -15t-21.5 -32.5t-38.5 -41.5t-58.5 -32.5t-80 -14.5q-44 0 -75.5 13t-41.5 25l-10 13h-2q6 -51 6 -72v-167h-42z"/>
<glyph glyph-name="mu" horiz-adv-x="598" unicode="μ" d="M93 -200v700h42v-302q0 -30 2 -51.5t9 -45t20 -38.5t36.5 -24.5t55.5 -9.5q90 0 147.5 67.5t57.5 159.5v244h42v-500h-42v83l2 41h-2q-2 -6 -6.5 -15t-21.5 -32.5t-38.5 -41.5t-58.5 -32.5t-80 -14.5q-44 0 -75.5 13t-41.5 25l-10 13h-2q6 -51 6 -72v-167h-42z"/>
<glyph glyph-name="paragraph" horiz-adv-x="551" unicode="¶" d="M398 -50v647h42v-647h-42zM294 -50v291q-98 0 -169 67t-71 163t70.5 162.5t168.5 66.5h210v-40h-167v-710h-42z"/>
<glyph glyph-name="periodcentered" horiz-adv-x="273" unicode="·" d="M106 255v63h61v-63h-61z"/>
<glyph glyph-name="cedilla" horiz-adv-x="509" unicode="¸" d="M233 18l32 -5v-8l-12 -65q31 -5 50 -23t19 -45q0 -39 -26 -57.5t-65 -18.5l-44 4v38q18 -5 41 -5q54 0 54 37q0 38 -61 38l-12 -1z"/>
<glyph glyph-name="onesuperior" horiz-adv-x="376" unicode="¹" d="M77 423v36h96v325l1 22h-1q-4 -8 -23 -27l-44 -43l-26 27l93 94h38v-398h93v-36h-227z"/>
<glyph glyph-name="ordmasculine" horiz-adv-x="476" unicode="º" d="M92 263v37h294v-37h-294zM237 420q52 0 88 37t36 92q0 54 -36 89.5t-88 35.5t-88 -35.5t-36 -89.5q0 -55 36 -92t88 -37zM237 383q-68 0 -115.5 48t-47.5 118q0 68 47.5 115t115.5 47t115.5 -47t47.5 -115q0 -70 -47.5 -118t-115.5 -48z"/>
<glyph glyph-name="guillemotright" horiz-adv-x="491" unicode="»" d="M60 77l164 205l-164 206h53l164 -206l-164 -205h-53zM220 77l164 205l-164 206h53l164 -206l-164 -205h-53z"/>
<glyph glyph-name="onequarter" horiz-adv-x="971" unicode="¼" d="M365 0h-44l336 700h43zM133 266v36h96v325l1 22h-1q-4 -8 -23 -27l-44 -43l-26 27l93 94h38v-398h93v-36h-227zM671 157h160v147l3 65h-2q-17 -27 -35 -50l-126 -160v-2zM831 0v121h-215v26l222 287h31v-277h68v-36h-68v-121h-38z"/>
<glyph glyph-name="onehalf" horiz-adv-x="919" unicode="½" d="M577 0q-2 18 -2 27q0 45 23 80.5t55.5 58.5t64.5 44t55 49t23 62q0 36 -25.5 61.5t-65.5 25.5q-25 0 -48.5 -12.5t-34.5 -25.5l-11 -12l-24 26q5 7 14 17t39.5 26.5t64.5 16.5q62 0 96 -35.5t34 -87.5q0 -41 -22.5 -73.5t-54.5 -54.5t-64.5 -42.5t-55.5 -49.5t-24 -65 h229v-36h-266zM64 266v36h96v325l1 22h-1q-4 -8 -23 -27l-44 -43l-26 27l93 94h38v-398h93v-36h-227zM296 0h-44l336 700h43z"/>
<glyph glyph-name="threequarters" horiz-adv-x="955" unicode="¾" d="M626 157h160v147l3 65h-2q-17 -27 -35 -50l-126 -160v-2zM786 0v121h-215v26l222 287h31v-277h68v-36h-68v-121h-38zM320 0h-44l336 700h43zM191 256q-27 0 -51 6.5t-39 16t-26.5 19.5t-16.5 16l-5 7l28 26q4 -6 12 -15t36.5 -24.5t62.5 -15.5q39 0 71 29.5t32 71.5 q0 43 -32.5 69.5t-74.5 26.5h-32l-11 24l108 127l25 25v2q-18 -3 -38 -3h-164v36h255v-26l-128 -150q51 -4 91 -35t40 -96q0 -57 -42.5 -97t-100.5 -40z"/>
<glyph glyph-name="questiondown" horiz-adv-x="429" unicode="¿" d="M221 439v61h59v-61h-59zM48 -38q0 46 18.5 82.5t45 61.5t53.5 49t45.5 56.5t18.5 71.5v42h43v-42q0 -45 -18.5 -82t-45 -62t-52.5 -49.5t-44.5 -57t-18.5 -71.5q0 -55 41 -92t105 -37q32 0 64 10.5t47 21.5l16 10l23 -34q-7 -6 -19 -14t-51 -22t-79 -14q-85 0 -138.5 49 t-53.5 123z"/>
<glyph glyph-name="Agrave" horiz-adv-x="606" unicode="À" d="M281 750l-79 111h56l67 -111h-44zM304 650h-2q-15 -54 -26 -84l-107 -284h267l-106 284zM542 0l-91 242h-297l-90 -242h-46l262 700h46l262 -700h-46z"/>
<glyph glyph-name="Aacute" horiz-adv-x="606" unicode="Á" d="M280 750l67 111h56l-79 -111h-44zM304 650h-2q-15 -54 -26 -84l-107 -284h267l-106 284zM542 0l-91 242h-297l-90 -242h-46l262 700h46l262 -700h-46z"/>
<glyph glyph-name="Acircumflex" horiz-adv-x="606" unicode="Â" d="M197 750l80 111h52l80 -111h-49l-56 80h-2l-56 -80h-49zM304 650h-2q-15 -54 -26 -84l-107 -284h267l-106 284zM542 0l-91 242h-297l-90 -242h-46l262 700h46l262 -700h-46z"/>
<glyph glyph-name="Atilde" horiz-adv-x="606" unicode="Ã" d="M159 753q0 108 83 108q23 0 41.5 -11.5t29 -25.5t25.5 -25.5t30 -11.5q40 0 40 71h40q0 -108 -83 -108q-23 0 -41.5 11.5t-29 25.5t-25.5 25.5t-30 11.5q-40 0 -40 -71h-40zM304 650h-2q-15 -54 -26 -84l-107 -284h267l-106 284zM542 0l-91 242h-297l-90 -242h-46 l262 700h46l262 -700h-46z"/>
<glyph glyph-name="Adieresis" horiz-adv-x="606" unicode="Ä" d="M212 788v73h46v-73h-46zM349 788v73h46v-73h-46zM304 650h-2q-15 -54 -26 -84l-107 -284h267l-106 284zM542 0l-91 242h-297l-90 -242h-46l262 700h46l262 -700h-46z"/>
<glyph glyph-name="Aring" horiz-adv-x="606" unicode="Å" d="M303 775q14 0 23 9t9 23q0 15 -9 24t-23 9t-23 -9t-9 -24q0 -14 9 -23t23 -9zM303 740q-29 0 -48 19t-19 48t19 48t48 19t48 -19t19 -48t-19 -48t-48 -19zM304 650h-2q-15 -54 -26 -84l-107 -284h267l-106 284zM542 0l-91 242h-297l-90 -242h-46l262 700h46l262 -700h-46 z"/>
<glyph glyph-name="AE" horiz-adv-x="832" unicode="Æ" d="M333 660l-118 -287h154v287h-36zM16 0l287 700h449v-40h-340v-287h279v-40h-279v-293h359v-40h-402v333h-171l-136 -333h-46z"/>
<glyph glyph-name="Ccedilla" horiz-adv-x="735" unicode="Ç" d="M62 355q0 152 99.5 254.5t247.5 102.5q46 0 89 -9t71 -22t49.5 -26t31.5 -22l9 -9l-26 -32q-3 3 -9.5 8.5t-28.5 19t-46 24t-62 19t-77 8.5q-129 0 -216 -90.5t-87 -225.5q0 -137 87.5 -231.5t218.5 -94.5q42 0 82 10t66.5 23.5t47.5 27.5t31 24l10 10l27 -30l-11 -11 t-32 -25t-52.5 -32t-71.5 -25.5t-90 -12.5l-9 -48q31 -5 50 -23t19 -45q0 -39 -26 -57.5t-65 -18.5l-44 4v38q18 -5 41 -5q54 0 54 37q0 38 -61 38l-12 -1l17 82q-141 10 -231.5 114.5t-90.5 251.5z"/>
<glyph glyph-name="Egrave" horiz-adv-x="571" unicode="È" d="M290 750l-79 111h56l67 -111h-44zM108 0v700h383v-40h-340v-287h279v-40h-279v-293h359v-40h-402z"/>
<glyph glyph-name="Eacute" horiz-adv-x="571" unicode="É" d="M289 750l67 111h56l-79 -111h-44zM108 0v700h383v-40h-340v-287h279v-40h-279v-293h359v-40h-402z"/>
<glyph glyph-name="Ecircumflex" horiz-adv-x="571" unicode="Ê" d="M206 750l80 111h52l80 -111h-49l-56 80h-2l-56 -80h-49zM108 0v700h383v-40h-340v-287h279v-40h-279v-293h359v-40h-402z"/>
<glyph glyph-name="Edieresis" horiz-adv-x="571" unicode="Ë" d="M221 788v73h46v-73h-46zM358 788v73h46v-73h-46zM108 0v700h383v-40h-340v-287h279v-40h-279v-293h359v-40h-402z"/>
<glyph glyph-name="Igrave" horiz-adv-x="259" unicode="Ì" d="M108 750l-79 111h56l67 -111h-44zM108 0v700h43v-700h-43z"/>
<glyph glyph-name="Iacute" horiz-adv-x="259" unicode="Í" d="M107 750l67 111h56l-79 -111h-44zM108 0v700h43v-700h-43z"/>
<glyph glyph-name="Icircumflex" horiz-adv-x="259" unicode="Î" d="M24 750l80 111h52l80 -111h-49l-56 80h-2l-56 -80h-49zM108 0v700h43v-700h-43z"/>
<glyph glyph-name="Idieresis" horiz-adv-x="259" unicode="Ï" d="M39 788v73h46v-73h-46zM176 788v73h46v-73h-46zM108 0v700h43v-700h-43z"/>
<glyph glyph-name="Eth" horiz-adv-x="753" unicode="Ð" d="M163 40h170q142 0 226.5 81t84.5 229q0 147 -84.5 228.5t-226.5 81.5h-170v-287h183v-40h-183v-293zM60 333v40h60v327h220q158 0 253.5 -93t95.5 -257q0 -165 -95 -257.5t-254 -92.5h-220v333h-60z"/>
<glyph glyph-name="Ntilde" horiz-adv-x="752" unicode="Ñ" d="M232 753q0 108 83 108q23 0 41.5 -11.5t29 -25.5t25.5 -25.5t30 -11.5q40 0 40 71h40q0 -108 -83 -108q-23 0 -41.5 11.5t-29 25.5t-25.5 25.5t-30 11.5q-40 0 -40 -71h-40zM108 0v700h40l399 -549l57 -88h2q-5 53 -5 88v549h43v-700h-40l-399 549l-57 88h-2q5 -53 5 -88 v-549h-43z"/>
<glyph glyph-name="Ograve" horiz-adv-x="826" unicode="Ò" d="M391 750l-79 111h56l67 -111h-44zM104 355q0 -137 90 -231.5t219 -94.5t219 94.5t90 231.5q0 134 -90 225t-219 91t-219 -91t-90 -225zM59 355q0 150 103.5 253.5t250.5 103.5t250.5 -103.5t103.5 -253.5q0 -154 -103.5 -260.5t-250.5 -106.5t-250.5 106.5t-103.5 260.5z "/>
<glyph glyph-name="Oacute" horiz-adv-x="826" unicode="Ó" d="M390 750l67 111h56l-79 -111h-44zM104 355q0 -137 90 -231.5t219 -94.5t219 94.5t90 231.5q0 134 -90 225t-219 91t-219 -91t-90 -225zM59 355q0 150 103.5 253.5t250.5 103.5t250.5 -103.5t103.5 -253.5q0 -154 -103.5 -260.5t-250.5 -106.5t-250.5 106.5t-103.5 260.5z "/>
<glyph glyph-name="Ocircumflex" horiz-adv-x="826" unicode="Ô" d="M307 750l80 111h52l80 -111h-49l-56 80h-2l-56 -80h-49zM104 355q0 -137 90 -231.5t219 -94.5t219 94.5t90 231.5q0 134 -90 225t-219 91t-219 -91t-90 -225zM59 355q0 150 103.5 253.5t250.5 103.5t250.5 -103.5t103.5 -253.5q0 -154 -103.5 -260.5t-250.5 -106.5 t-250.5 106.5t-103.5 260.5z"/>
<glyph glyph-name="Otilde" horiz-adv-x="826" unicode="Õ" d="M269 753q0 108 83 108q23 0 41.5 -11.5t29 -25.5t25.5 -25.5t30 -11.5q40 0 40 71h40q0 -108 -83 -108q-23 0 -41.5 11.5t-29 25.5t-25.5 25.5t-30 11.5q-40 0 -40 -71h-40zM104 355q0 -137 90 -231.5t219 -94.5t219 94.5t90 231.5q0 134 -90 225t-219 91t-219 -91 t-90 -225zM59 355q0 150 103.5 253.5t250.5 103.5t250.5 -103.5t103.5 -253.5q0 -154 -103.5 -260.5t-250.5 -106.5t-250.5 106.5t-103.5 260.5z"/>
<glyph glyph-name="Odieresis" horiz-adv-x="826" unicode="Ö" d="M322 788v73h46v-73h-46zM459 788v73h46v-73h-46zM104 355q0 -137 90 -231.5t219 -94.5t219 94.5t90 231.5q0 134 -90 225t-219 91t-219 -91t-90 -225zM59 355q0 150 103.5 253.5t250.5 103.5t250.5 -103.5t103.5 -253.5q0 -154 -103.5 -260.5t-250.5 -106.5t-250.5 106.5 t-103.5 260.5z"/>
<glyph glyph-name="multiply" horiz-adv-x="658" unicode="×" d="M78 28l224 255l-224 255l28 28l223 -253l223 253l28 -28l-225 -255l225 -255l-28 -28l-223 253l-223 -253z"/>
<glyph glyph-name="Oslash" horiz-adv-x="831" unicode="Ø" d="M107 355q0 -152 108 -249l368 515q-75 50 -167 50q-129 0 -219 -91t-90 -225zM725 355q0 72 -28.5 134.5t-79.5 106.5l-369 -516q74 -51 168 -51q129 0 219 94.5t90 231.5zM62 355q0 150 103.5 253.5t250.5 103.5q103 0 192 -57l49 69l34 -25l-49 -69q60 -50 94 -121.5 t34 -153.5q0 -154 -103.5 -260.5t-250.5 -106.5q-104 0 -192 58l-49 -69l-35 24l50 70q-60 51 -94 125t-34 159z"/>
<glyph glyph-name="Ugrave" horiz-adv-x="719" unicode="Ù" d="M337 750l-79 111h56l67 -111h-44zM98 240v460h43v-458q0 -98 59 -155.5t159 -57.5t159.5 57.5t59.5 157.5v456h43v-460q0 -115 -72.5 -183.5t-188.5 -68.5q-117 0 -189.5 69t-72.5 183z"/>
<glyph glyph-name="Uacute" horiz-adv-x="719" unicode="Ú" d="M336 750l67 111h56l-79 -111h-44zM98 240v460h43v-458q0 -98 59 -155.5t159 -57.5t159.5 57.5t59.5 157.5v456h43v-460q0 -115 -72.5 -183.5t-188.5 -68.5q-117 0 -189.5 69t-72.5 183z"/>
<glyph glyph-name="Ucircumflex" horiz-adv-x="719" unicode="Û" d="M253 750l80 111h52l80 -111h-49l-56 80h-2l-56 -80h-49zM98 240v460h43v-458q0 -98 59 -155.5t159 -57.5t159.5 57.5t59.5 157.5v456h43v-460q0 -115 -72.5 -183.5t-188.5 -68.5q-117 0 -189.5 69t-72.5 183z"/>
<glyph glyph-name="Udieresis" horiz-adv-x="719" unicode="Ü" d="M268 788v73h46v-73h-46zM405 788v73h46v-73h-46zM98 240v460h43v-458q0 -98 59 -155.5t159 -57.5t159.5 57.5t59.5 157.5v456h43v-460q0 -115 -72.5 -183.5t-188.5 -68.5q-117 0 -189.5 69t-72.5 183z"/>
<glyph glyph-name="Yacute" horiz-adv-x="556" unicode="Ý" d="M255 750l67 111h56l-79 -111h-44zM257 0v304l-238 396h49l166 -276l43 -79h2q22 45 43 79l166 276h49l-237 -396v-304h-43z"/>
<glyph glyph-name="Thorn" horiz-adv-x="594" unicode="Þ" d="M151 200h185q78 0 124 44t46 122t-46 121t-124 43h-185v-330zM108 0v700h43v-130h187q93 0 153 -55.5t60 -148.5q0 -94 -60 -150t-155 -56h-185v-160h-43z"/>
<glyph glyph-name="germandbls" horiz-adv-x="563" unicode="ß" d="M88 0v532q0 83 56.5 131.5t131.5 48.5q74 0 117.5 -41.5t43.5 -96.5q0 -37 -19 -69t-41.5 -50.5t-41.5 -42t-19 -44.5q0 -24 33 -50.5t72.5 -49t72.5 -60t33 -80.5q0 -65 -45 -100t-109 -35q-43 0 -81.5 8.5t-55.5 17.5l-17 9v46q63 -40 155 -40q46 0 77.5 24t31.5 70 q0 29 -21.5 55t-52.5 45.5t-62.5 39t-53 44.5t-21.5 54q0 30 19 58t41.5 46.5t41.5 46.5t19 57q0 38 -31.5 67.5t-87.5 29.5q-57 0 -100.5 -38.5t-43.5 -103.5v-529h-42z"/>
<glyph glyph-name="agrave" d="M233 589l-79 111h56l67 -111h-44zM91 136q0 -43 34 -76t94 -33q77 0 124 65.5t47 146.5v27h-32q-31 0 -50.5 -0.5t-56 -4t-60 -12t-49 -22t-38.5 -37t-13 -54.5zM47 133q0 35 13 63t32 45.5t49.5 30.5t55.5 19t60 9.5t54 4t46 0.5h33v17q0 149 -137 149q-39 0 -74.5 -12 t-52.5 -24l-16 -12l-24 34q7 6 20 15t57 24.5t92 15.5q87 0 132 -48t45 -141v-323h-42v66l4 45h-2q1 0 -5 -12.5t-19 -30.5t-32.5 -36.5t-51 -31t-67.5 -12.5q-68 0 -119 37.5t-51 107.5z" unicode="à"/>
<glyph glyph-name="aacute" d="M231 589l67 111h56l-79 -111h-44zM91 136q0 -43 34 -76t94 -33q77 0 124 65.5t47 146.5v27h-32q-31 0 -50.5 -0.5t-56 -4t-60 -12t-49 -22t-38.5 -37t-13 -54.5zM47 133q0 35 13 63t32 45.5t49.5 30.5t55.5 19t60 9.5t54 4t46 0.5h33v17q0 149 -137 149q-39 0 -74.5 -12 t-52.5 -24l-16 -12l-24 34q7 6 20 15t57 24.5t92 15.5q87 0 132 -48t45 -141v-323h-42v66l4 45h-2q1 0 -5 -12.5t-19 -30.5t-32.5 -36.5t-51 -31t-67.5 -12.5q-68 0 -119 37.5t-51 107.5z" unicode="á"/>
<glyph glyph-name="acircumflex" d="M149 589l80 111h52l80 -111h-49l-56 80h-2l-56 -80h-49zM91 136q0 -43 34 -76t94 -33q77 0 124 65.5t47 146.5v27h-32q-31 0 -50.5 -0.5t-56 -4t-60 -12t-49 -22t-38.5 -37t-13 -54.5zM47 133q0 35 13 63t32 45.5t49.5 30.5t55.5 19t60 9.5t54 4t46 0.5h33v17 q0 149 -137 149q-39 0 -74.5 -12t-52.5 -24l-16 -12l-24 34q7 6 20 15t57 24.5t92 15.5q87 0 132 -48t45 -141v-323h-42v66l4 45h-2q1 0 -5 -12.5t-19 -30.5t-32.5 -36.5t-51 -31t-67.5 -12.5q-68 0 -119 37.5t-51 107.5z" unicode="â"/>
<glyph glyph-name="atilde" d="M111 592q0 108 83 108q23 0 41.5 -11.5t29 -25.5t25.5 -25.5t30 -11.5q40 0 40 71h40q0 -108 -83 -108q-23 0 -41.5 11.5t-29 25.5t-25.5 25.5t-30 11.5q-40 0 -40 -71h-40zM91 136q0 -43 34 -76t94 -33q77 0 124 65.5t47 146.5v27h-32q-31 0 -50.5 -0.5t-56 -4t-60 -12 t-49 -22t-38.5 -37t-13 -54.5zM47 133q0 35 13 63t32 45.5t49.5 30.5t55.5 19t60 9.5t54 4t46 0.5h33v17q0 149 -137 149q-39 0 -74.5 -12t-52.5 -24l-16 -12l-24 34q7 6 20 15t57 24.5t92 15.5q87 0 132 -48t45 -141v-323h-42v66l4 45h-2q1 0 -5 -12.5t-19 -30.5 t-32.5 -36.5t-51 -31t-67.5 -12.5q-68 0 -119 37.5t-51 107.5z" unicode="ã"/>
<glyph glyph-name="adieresis" d="M164 627v73h46v-73h-46zM301 627v73h46v-73h-46zM91 136q0 -43 34 -76t94 -33q77 0 124 65.5t47 146.5v27h-32q-31 0 -50.5 -0.5t-56 -4t-60 -12t-49 -22t-38.5 -37t-13 -54.5zM47 133q0 35 13 63t32 45.5t49.5 30.5t55.5 19t60 9.5t54 4t46 0.5h33v17q0 149 -137 149 q-39 0 -74.5 -12t-52.5 -24l-16 -12l-24 34q7 6 20 15t57 24.5t92 15.5q87 0 132 -48t45 -141v-323h-42v66l4 45h-2q1 0 -5 -12.5t-19 -30.5t-32.5 -36.5t-51 -31t-67.5 -12.5q-68 0 -119 37.5t-51 107.5z" unicode="ä"/>
<glyph glyph-name="aring" d="M255 614q14 0 23 9t9 23q0 15 -9 24t-23 9t-23 -9t-9 -24q0 -14 9 -23t23 -9zM255 579q-29 0 -48 19.5t-19 47.5t19 47.5t48 19.5t48 -19.5t19 -47.5t-19 -47.5t-48 -19.5zM91 136q0 -43 34 -76t94 -33q77 0 124 65.5t47 146.5v27h-32q-31 0 -50.5 -0.5t-56 -4t-60 -12 t-49 -22t-38.5 -37t-13 -54.5zM47 133q0 35 13 63t32 45.5t49.5 30.5t55.5 19t60 9.5t54 4t46 0.5h33v17q0 149 -137 149q-39 0 -74.5 -12t-52.5 -24l-16 -12l-24 34q7 6 20 15t57 24.5t92 15.5q87 0 132 -48t45 -141v-323h-42v66l4 45h-2q1 0 -5 -12.5t-19 -30.5 t-32.5 -36.5t-51 -31t-67.5 -12.5q-68 0 -119 37.5t-51 107.5z" unicode="å"/>
<glyph glyph-name="ae" horiz-adv-x="878" unicode="æ" d="M92 136q0 -45 34 -77t94 -32q77 0 123.5 65.5t46.5 146.5v22h-69q-34 0 -59.5 -1.5t-60 -8.5t-56 -19.5t-37.5 -37t-16 -58.5zM436 300h345q-4 86 -50 129t-111 43q-72 0 -122 -44t-62 -128zM48 133q0 34 11 61t27.5 44t43.5 29.5t50.5 18.5t58.5 9.5t56.5 4t54.5 0.5h40 v22q0 149 -141 149q-37 0 -72 -12t-51 -24l-16 -12l-24 34q7 6 19.5 15t55.5 24.5t90 15.5q144 0 172 -117h2q30 58 81.5 87.5t116.5 29.5q96 0 149 -64t53 -159l-2 -28h-391q0 -110 56.5 -171t147.5 -61q43 0 81.5 15.5t56.5 31.5l17 16l23 -35q-8 -8 -22.5 -19.5 t-61 -30.5t-94.5 -19q-78 0 -138 40.5t-87 112.5h-2q-3 -15 -13.5 -36t-31 -49.5t-58.5 -48t-86 -19.5q-73 0 -122.5 38t-49.5 107z"/>
<glyph glyph-name="ccedilla" horiz-adv-x="552" unicode="ç" d="M54 249q0 116 75.5 189.5t182.5 73.5q53 0 97.5 -18t62.5 -36l19 -17l-26 -34q-6 7 -18.5 17.5t-52 28.5t-82.5 18q-90 0 -152 -61.5t-62 -160.5q0 -98 62 -159t152 -61q49 0 90.5 18t59.5 36l17 18l22 -35l-8 -8t-22.5 -18.5t-37 -23.5t-51 -18.5t-65.5 -9.5l-9 -48 q31 -5 50 -23t19 -45q0 -39 -26 -57.5t-65 -18.5l-44 4v38q18 -5 41 -5q54 0 54 37q0 38 -61 38l-12 -1l18 83q-99 10 -163.5 80.5t-64.5 178.5z"/>
<glyph glyph-name="egrave" horiz-adv-x="553" unicode="è" d="M277 589l-79 111h56l67 -111h-44zM100 296h356q-4 87 -49 132t-112 45q-73 0 -127.5 -46.5t-67.5 -130.5zM53 249q0 122 71 192.5t172 70.5q97 0 150.5 -65.5t53.5 -162.5l-2 -27h-401q0 -105 61.5 -166.5t152.5 -61.5q43 0 81.5 15.5t55.5 31.5l18 16l23 -35 q-8 -8 -22.5 -19.5t-61 -30.5t-94.5 -19q-109 0 -183.5 72.5t-74.5 188.5z"/>
<glyph glyph-name="eacute" horiz-adv-x="553" unicode="é" d="M275 589l67 111h56l-79 -111h-44zM100 296h356q-4 87 -49 132t-112 45q-73 0 -127.5 -46.5t-67.5 -130.5zM53 249q0 122 71 192.5t172 70.5q97 0 150.5 -65.5t53.5 -162.5l-2 -27h-401q0 -105 61.5 -166.5t152.5 -61.5q43 0 81.5 15.5t55.5 31.5l18 16l23 -35 q-8 -8 -22.5 -19.5t-61 -30.5t-94.5 -19q-109 0 -183.5 72.5t-74.5 188.5z"/>
<glyph glyph-name="ecircumflex" horiz-adv-x="553" unicode="ê" d="M192 589l80 111h52l80 -111h-49l-56 80h-2l-56 -80h-49zM100 296h356q-4 87 -49 132t-112 45q-73 0 -127.5 -46.5t-67.5 -130.5zM53 249q0 122 71 192.5t172 70.5q97 0 150.5 -65.5t53.5 -162.5l-2 -27h-401q0 -105 61.5 -166.5t152.5 -61.5q43 0 81.5 15.5t55.5 31.5 l18 16l23 -35q-8 -8 -22.5 -19.5t-61 -30.5t-94.5 -19q-109 0 -183.5 72.5t-74.5 188.5z"/>
<glyph glyph-name="edieresis" horiz-adv-x="553" unicode="ë" d="M207 627v73h46v-73h-46zM344 627v73h46v-73h-46zM100 296h356q-4 87 -49 132t-112 45q-73 0 -127.5 -46.5t-67.5 -130.5zM53 249q0 122 71 192.5t172 70.5q97 0 150.5 -65.5t53.5 -162.5l-2 -27h-401q0 -105 61.5 -166.5t152.5 -61.5q43 0 81.5 15.5t55.5 31.5l18 16 l23 -35q-8 -8 -22.5 -19.5t-61 -30.5t-94.5 -19q-109 0 -183.5 72.5t-74.5 188.5z"/>
<glyph glyph-name="igrave" horiz-adv-x="218" unicode="ì" d="M88 589l-79 111h56l67 -111h-44zM88 0v500h42v-500h-42z"/>
<glyph glyph-name="iacute" horiz-adv-x="218" unicode="í" d="M87 589l67 111h56l-79 -111h-44zM88 0v500h42v-500h-42z"/>
<glyph glyph-name="icircumflex" horiz-adv-x="218" unicode="î" d="M4 589l80 111h52l80 -111h-49l-56 80h-2l-56 -80h-49zM88 0v500h42v-500h-42z"/>
<glyph glyph-name="idieresis" horiz-adv-x="218" unicode="ï" d="M19 627v73h46v-73h-46zM156 627v73h46v-73h-46zM88 0v500h42v-500h-42z"/>
<glyph glyph-name="eth" horiz-adv-x="589" unicode="ð" d="M99 230q0 -81 50 -141.5t133 -60.5q65 0 111 37.5t65.5 89t19.5 108.5q0 72 -50.5 118.5t-132.5 46.5q-94 0 -145 -58.5t-51 -139.5zM55 230q0 97 63.5 167.5t177.5 70.5q49 0 89.5 -16.5t56.5 -33.5l16 -16h2q-36 113 -137 183l-172 -80l-17 37l146 68q-66 35 -153 57 l12 38q114 -29 188 -74l123 58l17 -37l-101 -47q156 -119 156 -335q0 -52 -14.5 -100.5t-43 -90t-76.5 -66.5t-108 -25q-103 0 -164 72.5t-61 169.5z"/>
<glyph glyph-name="ntilde" horiz-adv-x="586" unicode="ñ" d="M164 592q0 108 83 108q23 0 41.5 -11.5t29 -25.5t25.5 -25.5t30 -11.5q40 0 40 71h40q0 -108 -83 -108q-23 0 -41.5 11.5t-29 25.5t-25.5 25.5t-30 11.5q-40 0 -40 -71h-40zM88 0v500h42v-88l-4 -41h2q17 48 73 94.5t139 46.5q92 0 128.5 -49.5t36.5 -145.5v-317h-42v302 q0 30 -2 51.5t-9 45t-20 38.5t-36.5 24.5t-55.5 9.5q-70 0 -126.5 -44.5t-75.5 -114.5q-8 -28 -8 -68v-244h-42z"/>
<glyph glyph-name="ograve" horiz-adv-x="620" unicode="ò" d="M288 589l-79 111h56l67 -111h-44zM95 253q0 -95 62.5 -159.5t152.5 -64.5t152.5 64.5t62.5 159.5q0 92 -62.5 155t-152.5 63t-152.5 -63t-62.5 -155zM51 253q0 109 75.5 184t183.5 75t183.5 -75t75.5 -184q0 -111 -75.5 -188t-183.5 -77t-183.5 77t-75.5 188z"/>
<glyph glyph-name="oacute" horiz-adv-x="620" unicode="ó" d="M287 589l67 111h56l-79 -111h-44zM95 253q0 -95 62.5 -159.5t152.5 -64.5t152.5 64.5t62.5 159.5q0 92 -62.5 155t-152.5 63t-152.5 -63t-62.5 -155zM51 253q0 109 75.5 184t183.5 75t183.5 -75t75.5 -184q0 -111 -75.5 -188t-183.5 -77t-183.5 77t-75.5 188z"/>
<glyph glyph-name="ocircumflex" horiz-adv-x="620" unicode="ô" d="M204 589l80 111h52l80 -111h-49l-56 80h-2l-56 -80h-49zM95 253q0 -95 62.5 -159.5t152.5 -64.5t152.5 64.5t62.5 159.5q0 92 -62.5 155t-152.5 63t-152.5 -63t-62.5 -155zM51 253q0 109 75.5 184t183.5 75t183.5 -75t75.5 -184q0 -111 -75.5 -188t-183.5 -77t-183.5 77 t-75.5 188z"/>
<glyph glyph-name="otilde" horiz-adv-x="620" unicode="õ" d="M166 592q0 108 83 108q23 0 41.5 -11.5t29 -25.5t25.5 -25.5t30 -11.5q40 0 40 71h40q0 -108 -83 -108q-23 0 -41.5 11.5t-29 25.5t-25.5 25.5t-30 11.5q-40 0 -40 -71h-40zM95 253q0 -95 62.5 -159.5t152.5 -64.5t152.5 64.5t62.5 159.5q0 92 -62.5 155t-152.5 63 t-152.5 -63t-62.5 -155zM51 253q0 109 75.5 184t183.5 75t183.5 -75t75.5 -184q0 -111 -75.5 -188t-183.5 -77t-183.5 77t-75.5 188z"/>
<glyph glyph-name="odieresis" horiz-adv-x="620" unicode="ö" d="M219 627v73h46v-73h-46zM356 627v73h46v-73h-46zM95 253q0 -95 62.5 -159.5t152.5 -64.5t152.5 64.5t62.5 159.5q0 92 -62.5 155t-152.5 63t-152.5 -63t-62.5 -155zM51 253q0 109 75.5 184t183.5 75t183.5 -75t75.5 -184q0 -111 -75.5 -188t-183.5 -77t-183.5 77 t-75.5 188z"/>
<glyph glyph-name="divide" horiz-adv-x="662" unicode="÷" d="M302 76v59h57v-59h-57zM93 263v40h476v-40h-476zM302 431v59h57v-59h-57z"/>
<glyph glyph-name="oslash" horiz-adv-x="622" unicode="ø" d="M526 253q0 96 -68 159l-253 -355q48 -28 106 -28q90 0 152.5 64.5t62.5 159.5zM96 253q0 -104 74 -171l255 357q-53 32 -114 32q-90 0 -152.5 -63t-62.5 -155zM52 253q0 109 75.5 184t183.5 75q76 0 138 -39l38 53l34 -26l-38 -53q87 -77 87 -194q0 -111 -75.5 -188 t-183.5 -77q-72 0 -130 35l-37 -52l-34 26l36 51q-94 78 -94 205z"/>
<glyph glyph-name="ugrave" horiz-adv-x="581" unicode="ù" d="M266 589l-79 111h56l67 -111h-44zM81 183v317h42v-302q0 -30 2 -51.5t9 -45t20 -38.5t36.5 -24.5t55.5 -9.5q90 0 147.5 67.5t57.5 159.5v244h42v-500h-42v88l4 41h-2q-17 -48 -72 -94.5t-135 -46.5q-89 0 -127 48t-38 147z"/>
<glyph glyph-name="uacute" horiz-adv-x="581" unicode="ú" d="M264 589l67 111h56l-79 -111h-44zM81 183v317h42v-302q0 -30 2 -51.5t9 -45t20 -38.5t36.5 -24.5t55.5 -9.5q90 0 147.5 67.5t57.5 159.5v244h42v-500h-42v88l4 41h-2q-17 -48 -72 -94.5t-135 -46.5q-89 0 -127 48t-38 147z"/>
<glyph glyph-name="ucircumflex" horiz-adv-x="581" unicode="û" d="M181 589l80 111h52l80 -111h-49l-56 80h-2l-56 -80h-49zM81 183v317h42v-302q0 -30 2 -51.5t9 -45t20 -38.5t36.5 -24.5t55.5 -9.5q90 0 147.5 67.5t57.5 159.5v244h42v-500h-42v88l4 41h-2q-17 -48 -72 -94.5t-135 -46.5q-89 0 -127 48t-38 147z"/>
<glyph glyph-name="udieresis" horiz-adv-x="581" unicode="ü" d="M196 627v73h46v-73h-46zM333 627v73h46v-73h-46zM81 183v317h42v-302q0 -30 2 -51.5t9 -45t20 -38.5t36.5 -24.5t55.5 -9.5q90 0 147.5 67.5t57.5 159.5v244h42v-500h-42v88l4 41h-2q-17 -48 -72 -94.5t-135 -46.5q-89 0 -127 48t-38 147z"/>
<glyph glyph-name="yacute" horiz-adv-x="489" unicode="ý" d="M222 589l67 111h56l-79 -111h-44zM8 -182l19 36q28 -24 62 -24q60 0 98 90l36 83l-207 497h45l165 -399l18 -47h2q7 23 17 47l165 399h45l-257 -617q-39 -93 -127 -93q-21 0 -41.5 7t-29.5 14z"/>
<glyph glyph-name="thorn" horiz-adv-x="579" unicode="þ" d="M129 249q0 -89 47 -155t127 -66q76 0 127 60t51 162q0 100 -48.5 160.5t-125.5 60.5q-76 0 -127 -55.5t-51 -166.5zM88 -200v900h42v-255l-1 -40h2q2 4 5.5 11.5t17.5 26t32 32.5t51 25.5t72 11.5q99 0 157.5 -72t58.5 -190t-62 -190t-160 -72q-36 0 -67.5 11t-50 27 t-32 32t-18.5 27l-5 11h-2q2 -18 2 -44v-252h-42z"/>
<glyph glyph-name="OE" horiz-adv-x="947" unicode="Œ" d="M107 350q0 -138 85 -228.5t222 -90.5q16 0 33.5 2t26.5 4l10 2v622q-33 8 -70 8q-137 0 -222 -91t-85 -228zM62 350q0 153 99 256.5t253 103.5q18 0 60 -5t56 -5h337v-40h-340v-287h279v-40h-279v-293h359v-40h-355q-13 0 -56 -5t-61 -5q-154 0 -253 103t-99 257z"/>
<glyph glyph-name="oe" horiz-adv-x="1025" unicode="œ" d="M96 249q0 -98 62 -159t152 -61t152.5 62t62.5 163q0 96 -63 156.5t-152 60.5q-90 0 -152 -62t-62 -160zM572 296h356q-4 87 -49 132t-112 45q-73 0 -127.5 -46.5t-67.5 -130.5zM52 249q0 116 75.5 189.5t182.5 73.5q77 0 140 -40t94 -109h2q29 71 88.5 110t133.5 39 q97 0 150.5 -65.5t53.5 -162.5l-2 -27h-401q3 -108 64 -168t150 -60q43 0 81.5 15.5t55.5 31.5l18 16l23 -35q-8 -8 -22.5 -19.5t-61 -30.5t-94.5 -19q-79 0 -142.5 40t-93.5 110h-2q-31 -70 -94 -110t-141 -40q-108 0 -183 72.5t-75 188.5z"/>
<glyph glyph-name="Scaron" horiz-adv-x="530" unicode="Š" d="M243 750l-80 111h49l56 -80h2l56 80h49l-80 -111h-52zM56 75l29 33l8.5 -8.5t24 -19t38.5 -23.5t52 -18.5t64 -8.5q67 0 111.5 38t44.5 100q0 40 -19.5 71t-51.5 50t-70 36t-76 34.5t-70 38.5t-51.5 55t-19.5 78q0 73 59 127t151 54q32 0 62 -6.5t50 -16t35.5 -19.5 t22.5 -16l8 -7l-24 -37q-7 7 -19.5 17t-52.5 26.5t-81 16.5q-74 0 -120 -42t-46 -96q0 -37 19.5 -65.5t51.5 -46.5t70 -34t76 -34t70 -40t51.5 -58.5t19.5 -83.5q0 -78 -55.5 -130t-147.5 -52q-39 0 -75 9t-60 21.5t-43 25.5t-28 22z"/>
<glyph glyph-name="scaron" horiz-adv-x="436" unicode="š" d="M199 589l-80 111h49l56 -80h2l56 80h49l-80 -111h-52zM45 60l27 32q6 -7 18 -17.5t52.5 -28t84.5 -17.5q49 0 82 25t33 69q0 35 -28.5 59t-69 39t-80.5 32t-68.5 48t-28.5 76q0 64 46 99.5t114 35.5q45 0 82 -13.5t51 -26.5l15 -14l-25 -34q-5 5 -14 13t-41.5 21 t-70.5 13q-47 0 -80 -22.5t-33 -68.5q0 -36 28.5 -60t69 -39.5t80.5 -32t68.5 -48t28.5 -77.5q0 -60 -45 -97.5t-115 -37.5q-54 0 -99 18t-63 36z"/>
<glyph glyph-name="Ydieresis" horiz-adv-x="556" unicode="Ÿ" d="M181 788v73h46v-73h-46zM318 788v73h46v-73h-46zM257 0v304l-238 396h49l166 -276l43 -79h2q22 45 43 79l166 276h49l-237 -396v-304h-43z"/>
<glyph glyph-name="circumflex" horiz-adv-x="508" unicode="ˆ" d="M148 750l80 111h52l80 -111h-49l-56 80h-2l-56 -80h-49z"/>
<glyph glyph-name="tilde" horiz-adv-x="509" unicode="˜" d="M110 753q0 108 83 108q23 0 41.5 -11.5t29 -25.5t25.5 -25.5t30 -11.5q40 0 40 71h40q0 -108 -83 -108q-23 0 -41.5 11.5t-29 25.5t-25.5 25.5t-30 11.5q-40 0 -40 -71h-40z"/>
<glyph glyph-name="thinspace" horiz-adv-x="10" unicode=" "/>
<glyph glyph-name="endash" horiz-adv-x="556" unicode="–" d="M40 263v40h476v-40h-476z"/>
<glyph glyph-name="emdash" horiz-adv-x="756" unicode="—" d="M40 263v40h676v-40h-676z"/>
<glyph glyph-name="quoteleft" horiz-adv-x="200" unicode="‘" d="M60 557l48 151h39l-35 -151h-52z"/>
<glyph glyph-name="quotesinglbase" horiz-adv-x="235" unicode="‚" d="M60 -90l35 151h52l-48 -151h-39z"/>
<glyph glyph-name="quotedblleft" horiz-adv-x="300" unicode="“" d="M60 557l48 151h39l-35 -151h-52zM160 557l48 151h39l-35 -151h-52z"/>
<glyph glyph-name="quotedblright" horiz-adv-x="297" unicode="”" d="M63 557l35 151h52l-48 -151h-39zM163 557l35 151h52l-48 -151h-39z"/>
<glyph glyph-name="dagger" horiz-adv-x="372" unicode="†" d="M163 -50v510h-114v40h114v200h42v-200h119v-40h-119v-510h-42z"/>
<glyph glyph-name="daggerdbl" horiz-adv-x="409" unicode="‡" d="M67 186v40h114v234h-114v40h114v200h42v-200h119v-40h-119v-234h119v-40h-119v-236h-42v236h-114z"/>
<glyph glyph-name="ellipsis" horiz-adv-x="663" unicode="…" d="M514 0v63h61v-63h-61zM301 0v63h61v-63h-61zM88 0v63h61v-63h-61z"/>
<glyph glyph-name="perthousand" horiz-adv-x="1017" unicode="‰" d="M422 118q0 -38 25 -64t62 -26t62.5 26t25.5 64t-25.5 64.5t-62.5 26.5t-62 -26.5t-25 -64.5zM742 118q0 -38 25 -64t62 -26t62.5 26t25.5 64t-25.5 64.5t-62.5 26.5t-62 -26.5t-25 -64.5zM379 118q0 54 38 92.5t92 38.5t92.5 -38.5t38.5 -92.5t-38.5 -92t-92.5 -38 t-92 38t-38 92zM699 118q0 54 38 92.5t92 38.5t92.5 -38.5t38.5 -92.5t-38.5 -92t-92.5 -38t-92 38t-38 92zM193 491q37 0 62.5 26t25.5 64t-25.5 64.5t-62.5 26.5t-62 -26.5t-25 -64.5t25 -64t62 -26zM61 0l531 700h52l-531 -700h-52zM193 451q-54 0 -92 38t-38 92t38 92.5 t92 38.5t92.5 -38.5t38.5 -92.5t-38.5 -92t-92.5 -38z"/>
<glyph glyph-name="guilsinglleft" horiz-adv-x="331" unicode="‹" d="M218 77l-164 205l164 206h53l-164 -206l164 -205h-53z"/>
<glyph glyph-name="guilsinglright" horiz-adv-x="331" unicode="›" d="M60 77l164 205l-164 206h53l164 -206l-164 -205h-53z"/>
<glyph glyph-name="fraction" horiz-adv-x="149" unicode="⁄" d="M-71 0h-44l336 700h43z"/>
<glyph glyph-name="Euro" horiz-adv-x="589" unicode="€" d="M45 273v40h54q-2 18 -2 39q0 30 3 50h-55v40h62q28 119 119.5 194.5t213.5 75.5q23 0 45.5 -3t32.5 -5l11 -3l-10 -42q-36 11 -79 11q-106 0 -183 -62.5t-104 -165.5h328l-8 -40h-328q-4 -20 -4 -50q0 -15 2 -39h314l-7 -40h-301q23 -108 102 -175.5t189 -67.5q23 0 45 3 t33 7l10 3l12 -41q-43 -14 -100 -14q-126 0 -219 79.5t-117 205.5h-59z"/>
<glyph glyph-name="trademark" horiz-adv-x="922" unicode="™" d="M188 264v398h-160v38h360v-38h-161v-398h-39zM429 264l35 436h35l126 -270l14 -40h2q5 20 14 40l126 270h35l35 -436h-38l-28 328l1 28h-2l-127 -274h-34l-127 274h-2l1 -28l-28 -328h-38z"/>
<glyph glyph-name="minus" horiz-adv-x="600" unicode="−" d="M52 263v40h496v-40h-496z"/>
<glyph glyph-name="infinity" horiz-adv-x="491" unicode="∞" d="M246 184q-68 0 -116.5 48.5t-48.5 116.5t48.5 116t116.5 48t116 -48t48 -116t-48 -116.5t-116 -48.5z"/>
<glyph glyph-name="approxequal" horiz-adv-x="600" unicode="≈" d="M85 161l-25 30q64 66 141 66q50 0 107.5 -35t90.5 -35q60 0 116 56l25 -30q-64 -66 -141 -66q-50 0 -107.5 35t-90.5 35q-60 0 -116 -56zM85 321l-25 30q64 66 141 66q50 0 107.5 -35t90.5 -35q60 0 116 56l25 -30q-64 -66 -141 -66q-50 0 -107.5 35t-90.5 35 q-60 0 -116 -56z"/>
<glyph glyph-name="notequal" horiz-adv-x="600" unicode="≠" d="M130 92l68 91h-126v40h156l91 120h-247v40h277l90 119l33 -25l-71 -94h127v-40h-157l-91 -120h248v-40h-278l-87 -116z"/>
<glyph glyph-name="lessequal" horiz-adv-x="600" unicode="≤" d="M72 -113h439v-40h-439v40zM72 265v36l439 197v-48l-377 -166v-2l377 -166v-48z"/>
<glyph glyph-name="greaterequal" horiz-adv-x="600" unicode="≥" d="M89 -113h439v-40h-439v40zM90 68v48l377 166v2l-377 166v48l439 -197v-36z"/>
</font>
</defs>
</svg>
